<?xml version="1.0" encoding="utf-8"?>
<!-- Generator: Adobe Illustrator 22.1.0, SVG Export Plug-In . SVG Version: 6.00 Build 0)  -->
<svg version="1.1" id="图层_1" xmlns="http://www.w3.org/2000/svg" xmlns:xlink="http://www.w3.org/1999/xlink" x="0px" y="0px"
	 viewBox="0 0 145 23" style="enable-background:new 0 0 145 23;" xml:space="preserve">
<style type="text/css">
	.st0{fill:#fff;opacity:0.38;}
</style>
<g class="st0">
	<g>
		<path d="M4.8,22.2h12.7l3.6-2.9v-8.1H4.8V22.2z M8.6,13.8h8.7v5.9H8.6V13.8z M0,22.9l3.8-1.8v-12h16l1.1-2.5H3.8V4.1l16-0.7
			l1.2-3.2l-21,1V22.9z M24.2,22.2l17.4,0l3.9-3.2v-8.3H24.2V22.2z M28.2,13.6h13.3l0,5.7H28.2V13.6z M40.8,2.6l0.7,3.8l-12,0
			L33.2,0h-4.7l-4.3,6.5v2.8h16.6l0.9-1.8l0.4,1.8h3.8l-1.2-6.7H40.8z M70.4,0.4h-9.2l-1.4,5.1c-0.3,0-0.6,0-1,0l-1.4-2.9h1.1
			l1.1-2.1h-9.4l-1.7,5.8h3.7l1.1-3.8H54l1.5,3.6h2.2l-0.3,0.4c0,0-0.1,0.2-0.2,0.4h-8.7v3.8l4-0.9V9.2h13.6v1.3l4-1.2V7h-8.5
			c-0.2-0.3-0.3-0.5-0.5-0.8h2.2l1-3.7h0.6l1.7,3.7h3.6l-1.8-3.7h0.9L70.4,0.4z M66.1,16.3l3.4-2.4l0-3.1H49.6v11.6l16.5,0l3.4-2.4
			l0-2.8H53.6v-0.8L66.1,16.3z M53.6,12.9h11.9v1.2H53.6V12.9z M65.5,19.1v1.1H53.6v-1.1H65.5z M89.5,17.7h3.6l1.1-2.5h-4.7V13h1.4
			l3.4-2.8V0.6H81V13h4.8v2.3h-4.9v2.5h4.9v2.2h-5.4v2.5h13.4l1.2-2.5h-5.5V17.7z M89.4,3.1h1.4v2.5h-1.4V3.1z M86,10.6h-1.3V8H86
			V10.6z M86,5.6h-1.3V3.1H86V5.6z M89.4,8h1.4v2.6h-1.4V8z M78.3,12.7h0.8l1.1-2.7h-1.9V3.2h1.2l1.1-2.7h-7.7v2.7h1.9V10h-1.9v2.7
			h1.9v7h-1.9v2.7h6.3l1.2-2.7h-2V12.7z M100.5,15.6l-3.3,6.7l4.3,0l3.1-6.7H100.5z M118.4,3.1l0.8-3l-21.7,1v3.1l5.7-0.3l-5.7,3.4
			V9h6.9l-6.9,3.1v2h8.8l0,5.5h-2.1v2.8h2.5l3.5-2.8v-5.5h3.6l0.8-2.1l0.5,2.1h3.9l-1.4-5.3h-4l0.8,2.6h-8.2l11.4-6h-6.4l-2.1,1
			h-4.3l4.5-2.8L118.4,3.1z M111.4,15.6l3.3,6.6h4.2l-3.4-6.6H111.4z M130.3,9.3v1.9h8.7l0.9-1.7l0.6,1.7h3.5l-2-5.8h-3.6l1.1,3.2
			h-5.1l1.9-4.5h6.6l1.2-2.6l-5.1,0l-0.3-0.6c-0.1-0.2-0.3-0.4-0.7-0.7c-0.3-0.2-0.7-0.3-1.2-0.3c-0.5,0-0.9,0.1-1.2,0.4
			c-0.3,0.2-0.5,0.5-0.7,0.6c-0.1,0.2-0.2,0.4-0.3,0.6l-4.5,0v2.6h2.2L130.3,9.3z M130.1,22.2h3.7l2.5-10.1h-3.7L130.1,22.2z
			 M140.9,12.1h-3.6l0,10h5.6l1.2-2.6l-3.2,0L140.9,12.1z M121.5,19.6v2.7l7.4,0l1.2-2.6H121.5z M121.5,14.4v2.4l7.5,0l1.2-2.7
			l-4.5,0l5.1-9h-3.8l-1.2,2h-0.9l3.6-6.6h-3.8l-3.3,6l0,3.2h2.9L121.5,14.4z"/>
	</g>
</g>
</svg>
